<mxfile host="app.diagrams.net" agent="Mozilla/5.0 (Windows NT 10.0; Win64; x64) AppleWebKit/537.36 (KHTML, like Gecko) Chrome/137.0.0.0 Safari/537.36" version="27.2.0">
  <diagram name="Page-1" id="3cRse9nx-mdcCEquvsmP">
    <mxGraphModel dx="1042" dy="562" grid="1" gridSize="10" guides="1" tooltips="1" connect="1" arrows="1" fold="1" page="1" pageScale="1" pageWidth="827" pageHeight="1169" math="0" shadow="0">
      <root>
        <mxCell id="0" />
        <mxCell id="1" parent="0" />
        <mxCell id="dCZFzRNxmEc5decSwOcq-1" value="" style="rounded=0;whiteSpace=wrap;html=1;" parent="1" vertex="1">
          <mxGeometry x="80" y="80" width="440" height="280" as="geometry" />
        </mxCell>
        <mxCell id="dCZFzRNxmEc5decSwOcq-2" value="" style="rounded=0;whiteSpace=wrap;html=1;" parent="1" vertex="1">
          <mxGeometry x="80" y="440" width="440" height="280" as="geometry" />
        </mxCell>
        <mxCell id="dCZFzRNxmEc5decSwOcq-3" value="" style="rounded=0;whiteSpace=wrap;html=1;" parent="1" vertex="1">
          <mxGeometry x="80" y="800" width="440" height="280" as="geometry" />
        </mxCell>
        <mxCell id="dCZFzRNxmEc5decSwOcq-4" value="" style="rounded=0;whiteSpace=wrap;html=1;" parent="1" vertex="1">
          <mxGeometry x="80" y="1160" width="440" height="280" as="geometry" />
        </mxCell>
        <mxCell id="dCZFzRNxmEc5decSwOcq-5" value="Login" style="text;html=1;align=center;verticalAlign=middle;whiteSpace=wrap;rounded=0;" parent="1" vertex="1">
          <mxGeometry x="80" y="50" width="60" height="30" as="geometry" />
        </mxCell>
        <mxCell id="dCZFzRNxmEc5decSwOcq-6" value="Signup" style="text;html=1;align=center;verticalAlign=middle;whiteSpace=wrap;rounded=0;" parent="1" vertex="1">
          <mxGeometry x="80" y="410" width="60" height="30" as="geometry" />
        </mxCell>
        <mxCell id="dCZFzRNxmEc5decSwOcq-7" value="Books" style="text;html=1;align=center;verticalAlign=middle;whiteSpace=wrap;rounded=0;" parent="1" vertex="1">
          <mxGeometry x="80" y="770" width="60" height="30" as="geometry" />
        </mxCell>
        <mxCell id="dCZFzRNxmEc5decSwOcq-8" value="Deals" style="text;html=1;align=center;verticalAlign=middle;whiteSpace=wrap;rounded=0;" parent="1" vertex="1">
          <mxGeometry x="80" y="1130" width="60" height="30" as="geometry" />
        </mxCell>
        <mxCell id="dCZFzRNxmEc5decSwOcq-9" value="" style="rounded=0;whiteSpace=wrap;html=1;" parent="1" vertex="1">
          <mxGeometry x="80" y="1520" width="440" height="280" as="geometry" />
        </mxCell>
        <mxCell id="dCZFzRNxmEc5decSwOcq-10" value="Offers" style="text;html=1;align=center;verticalAlign=middle;whiteSpace=wrap;rounded=0;" parent="1" vertex="1">
          <mxGeometry x="80" y="1490" width="60" height="30" as="geometry" />
        </mxCell>
        <mxCell id="dCZFzRNxmEc5decSwOcq-11" value="" style="rounded=0;whiteSpace=wrap;html=1;" parent="1" vertex="1">
          <mxGeometry x="81" y="1880" width="440" height="280" as="geometry" />
        </mxCell>
        <mxCell id="dCZFzRNxmEc5decSwOcq-12" value="Profile" style="text;html=1;align=center;verticalAlign=middle;whiteSpace=wrap;rounded=0;" parent="1" vertex="1">
          <mxGeometry x="80" y="1850" width="60" height="30" as="geometry" />
        </mxCell>
        <mxCell id="dCZFzRNxmEc5decSwOcq-13" value="" style="endArrow=none;html=1;rounded=0;" parent="1" edge="1">
          <mxGeometry width="50" height="50" relative="1" as="geometry">
            <mxPoint x="299.5" y="360" as="sourcePoint" />
            <mxPoint x="299.5" y="80" as="targetPoint" />
          </mxGeometry>
        </mxCell>
        <mxCell id="dCZFzRNxmEc5decSwOcq-14" value="" style="endArrow=none;html=1;rounded=0;" parent="1" edge="1">
          <mxGeometry width="50" height="50" relative="1" as="geometry">
            <mxPoint x="299.5" y="720" as="sourcePoint" />
            <mxPoint x="299.5" y="440" as="targetPoint" />
          </mxGeometry>
        </mxCell>
        <mxCell id="dCZFzRNxmEc5decSwOcq-15" value="Logo" style="text;html=1;align=center;verticalAlign=middle;whiteSpace=wrap;rounded=0;" parent="1" vertex="1">
          <mxGeometry x="150" y="190" width="60" height="30" as="geometry" />
        </mxCell>
        <mxCell id="dCZFzRNxmEc5decSwOcq-16" value="Logo" style="text;html=1;align=center;verticalAlign=middle;whiteSpace=wrap;rounded=0;" parent="1" vertex="1">
          <mxGeometry x="150" y="570" width="60" height="30" as="geometry" />
        </mxCell>
        <mxCell id="dCZFzRNxmEc5decSwOcq-17" value="Login" style="text;html=1;align=center;verticalAlign=middle;whiteSpace=wrap;rounded=0;" parent="1" vertex="1">
          <mxGeometry x="384" y="190" width="60" height="30" as="geometry" />
        </mxCell>
        <mxCell id="dCZFzRNxmEc5decSwOcq-18" value="Signup" style="text;html=1;align=center;verticalAlign=middle;whiteSpace=wrap;rounded=0;" parent="1" vertex="1">
          <mxGeometry x="373" y="440" width="60" height="30" as="geometry" />
        </mxCell>
        <mxCell id="dCZFzRNxmEc5decSwOcq-19" value="" style="endArrow=none;html=1;rounded=0;" parent="1" edge="1">
          <mxGeometry width="50" height="50" relative="1" as="geometry">
            <mxPoint x="150" y="1080" as="sourcePoint" />
            <mxPoint x="150" y="800" as="targetPoint" />
          </mxGeometry>
        </mxCell>
        <mxCell id="dCZFzRNxmEc5decSwOcq-20" value="" style="endArrow=none;html=1;rounded=0;" parent="1" edge="1">
          <mxGeometry width="50" height="50" relative="1" as="geometry">
            <mxPoint x="150" y="1440" as="sourcePoint" />
            <mxPoint x="150" y="1160" as="targetPoint" />
          </mxGeometry>
        </mxCell>
        <mxCell id="dCZFzRNxmEc5decSwOcq-21" value="" style="endArrow=none;html=1;rounded=0;" parent="1" edge="1">
          <mxGeometry width="50" height="50" relative="1" as="geometry">
            <mxPoint x="149" y="2160" as="sourcePoint" />
            <mxPoint x="149" y="1880" as="targetPoint" />
          </mxGeometry>
        </mxCell>
        <mxCell id="dCZFzRNxmEc5decSwOcq-22" value="" style="endArrow=none;html=1;rounded=0;" parent="1" edge="1">
          <mxGeometry width="50" height="50" relative="1" as="geometry">
            <mxPoint x="150" y="1800" as="sourcePoint" />
            <mxPoint x="150" y="1520" as="targetPoint" />
          </mxGeometry>
        </mxCell>
        <mxCell id="dCZFzRNxmEc5decSwOcq-23" value="" style="endArrow=none;html=1;rounded=0;" parent="1" edge="1">
          <mxGeometry width="50" height="50" relative="1" as="geometry">
            <mxPoint x="80" y="1920" as="sourcePoint" />
            <mxPoint x="520" y="1919" as="targetPoint" />
          </mxGeometry>
        </mxCell>
        <mxCell id="dCZFzRNxmEc5decSwOcq-24" value="" style="endArrow=none;html=1;rounded=0;" parent="1" edge="1">
          <mxGeometry width="50" height="50" relative="1" as="geometry">
            <mxPoint x="80" y="1561" as="sourcePoint" />
            <mxPoint x="520" y="1560" as="targetPoint" />
          </mxGeometry>
        </mxCell>
        <mxCell id="dCZFzRNxmEc5decSwOcq-25" value="" style="endArrow=none;html=1;rounded=0;" parent="1" edge="1">
          <mxGeometry width="50" height="50" relative="1" as="geometry">
            <mxPoint x="80" y="1201" as="sourcePoint" />
            <mxPoint x="520" y="1200" as="targetPoint" />
          </mxGeometry>
        </mxCell>
        <mxCell id="dCZFzRNxmEc5decSwOcq-26" value="" style="endArrow=none;html=1;rounded=0;" parent="1" edge="1">
          <mxGeometry width="50" height="50" relative="1" as="geometry">
            <mxPoint x="80" y="841" as="sourcePoint" />
            <mxPoint x="520" y="840" as="targetPoint" />
          </mxGeometry>
        </mxCell>
        <mxCell id="dCZFzRNxmEc5decSwOcq-27" value="Logo" style="text;html=1;align=center;verticalAlign=middle;whiteSpace=wrap;rounded=0;" parent="1" vertex="1">
          <mxGeometry x="80" y="810" width="60" height="30" as="geometry" />
        </mxCell>
        <mxCell id="dCZFzRNxmEc5decSwOcq-28" value="Logo" style="text;html=1;align=center;verticalAlign=middle;whiteSpace=wrap;rounded=0;" parent="1" vertex="1">
          <mxGeometry x="80" y="1169" width="60" height="30" as="geometry" />
        </mxCell>
        <mxCell id="dCZFzRNxmEc5decSwOcq-29" value="Logo" style="text;html=1;align=center;verticalAlign=middle;whiteSpace=wrap;rounded=0;" parent="1" vertex="1">
          <mxGeometry x="80" y="1530" width="60" height="30" as="geometry" />
        </mxCell>
        <mxCell id="dCZFzRNxmEc5decSwOcq-30" value="Logo" style="text;html=1;align=center;verticalAlign=middle;whiteSpace=wrap;rounded=0;" parent="1" vertex="1">
          <mxGeometry x="80" y="1890" width="60" height="30" as="geometry" />
        </mxCell>
        <mxCell id="dCZFzRNxmEc5decSwOcq-31" value="Logout" style="text;html=1;align=center;verticalAlign=middle;whiteSpace=wrap;rounded=0;" parent="1" vertex="1">
          <mxGeometry x="460" y="810" width="60" height="30" as="geometry" />
        </mxCell>
        <mxCell id="dCZFzRNxmEc5decSwOcq-32" value="Logout" style="text;html=1;align=center;verticalAlign=middle;whiteSpace=wrap;rounded=0;" parent="1" vertex="1">
          <mxGeometry x="460" y="1169" width="60" height="30" as="geometry" />
        </mxCell>
        <mxCell id="dCZFzRNxmEc5decSwOcq-33" value="Logout" style="text;html=1;align=center;verticalAlign=middle;whiteSpace=wrap;rounded=0;" parent="1" vertex="1">
          <mxGeometry x="460" y="1530" width="60" height="30" as="geometry" />
        </mxCell>
        <mxCell id="dCZFzRNxmEc5decSwOcq-34" value="Logout" style="text;html=1;align=center;verticalAlign=middle;whiteSpace=wrap;rounded=0;" parent="1" vertex="1">
          <mxGeometry x="460" y="1890" width="60" height="30" as="geometry" />
        </mxCell>
        <mxCell id="dCZFzRNxmEc5decSwOcq-35" value="Theme&amp;nbsp;&lt;div&gt;Toggle&lt;/div&gt;" style="text;html=1;align=center;verticalAlign=middle;whiteSpace=wrap;rounded=0;" parent="1" vertex="1">
          <mxGeometry x="400" y="810" width="60" height="30" as="geometry" />
        </mxCell>
        <mxCell id="dCZFzRNxmEc5decSwOcq-36" value="Theme&amp;nbsp;&lt;div&gt;Toggle&lt;/div&gt;" style="text;html=1;align=center;verticalAlign=middle;whiteSpace=wrap;rounded=0;" parent="1" vertex="1">
          <mxGeometry x="400" y="1169" width="60" height="30" as="geometry" />
        </mxCell>
        <mxCell id="dCZFzRNxmEc5decSwOcq-37" value="Theme&amp;nbsp;&lt;div&gt;Toggle&lt;/div&gt;" style="text;html=1;align=center;verticalAlign=middle;whiteSpace=wrap;rounded=0;" parent="1" vertex="1">
          <mxGeometry x="400" y="1530" width="60" height="30" as="geometry" />
        </mxCell>
        <mxCell id="dCZFzRNxmEc5decSwOcq-38" value="Theme&amp;nbsp;&lt;div&gt;Toggle&lt;/div&gt;" style="text;html=1;align=center;verticalAlign=middle;whiteSpace=wrap;rounded=0;" parent="1" vertex="1">
          <mxGeometry x="400" y="1890" width="60" height="30" as="geometry" />
        </mxCell>
        <mxCell id="dCZFzRNxmEc5decSwOcq-39" value="Books" style="text;html=1;align=center;verticalAlign=middle;whiteSpace=wrap;rounded=0;" parent="1" vertex="1">
          <mxGeometry x="84" y="1570" width="60" height="30" as="geometry" />
        </mxCell>
        <mxCell id="dCZFzRNxmEc5decSwOcq-41" value="Books" style="text;html=1;align=center;verticalAlign=middle;whiteSpace=wrap;rounded=0;" parent="1" vertex="1">
          <mxGeometry x="84" y="1930" width="60" height="30" as="geometry" />
        </mxCell>
        <mxCell id="dCZFzRNxmEc5decSwOcq-42" value="Books" style="text;html=1;align=center;verticalAlign=middle;whiteSpace=wrap;rounded=0;" parent="1" vertex="1">
          <mxGeometry x="85" y="1210" width="60" height="30" as="geometry" />
        </mxCell>
        <mxCell id="dCZFzRNxmEc5decSwOcq-43" value="Books" style="text;html=1;align=center;verticalAlign=middle;whiteSpace=wrap;rounded=0;" parent="1" vertex="1">
          <mxGeometry x="85" y="850" width="60" height="30" as="geometry" />
        </mxCell>
        <mxCell id="dCZFzRNxmEc5decSwOcq-44" value="Deals" style="text;html=1;align=center;verticalAlign=middle;whiteSpace=wrap;rounded=0;" parent="1" vertex="1">
          <mxGeometry x="84" y="1970" width="60" height="30" as="geometry" />
        </mxCell>
        <mxCell id="dCZFzRNxmEc5decSwOcq-45" value="Deals" style="text;html=1;align=center;verticalAlign=middle;whiteSpace=wrap;rounded=0;" parent="1" vertex="1">
          <mxGeometry x="84" y="1610" width="60" height="30" as="geometry" />
        </mxCell>
        <mxCell id="dCZFzRNxmEc5decSwOcq-46" value="Deals" style="text;html=1;align=center;verticalAlign=middle;whiteSpace=wrap;rounded=0;" parent="1" vertex="1">
          <mxGeometry x="85" y="1250" width="60" height="30" as="geometry" />
        </mxCell>
        <mxCell id="dCZFzRNxmEc5decSwOcq-47" value="Deals" style="text;html=1;align=center;verticalAlign=middle;whiteSpace=wrap;rounded=0;" parent="1" vertex="1">
          <mxGeometry x="84" y="890" width="60" height="30" as="geometry" />
        </mxCell>
        <mxCell id="dCZFzRNxmEc5decSwOcq-48" value="Offers" style="text;html=1;align=center;verticalAlign=middle;whiteSpace=wrap;rounded=0;" parent="1" vertex="1">
          <mxGeometry x="85" y="930" width="60" height="30" as="geometry" />
        </mxCell>
        <mxCell id="dCZFzRNxmEc5decSwOcq-50" value="Offers" style="text;html=1;align=center;verticalAlign=middle;whiteSpace=wrap;rounded=0;" parent="1" vertex="1">
          <mxGeometry x="84" y="1285" width="60" height="30" as="geometry" />
        </mxCell>
        <mxCell id="dCZFzRNxmEc5decSwOcq-51" value="Offers" style="text;html=1;align=center;verticalAlign=middle;whiteSpace=wrap;rounded=0;" parent="1" vertex="1">
          <mxGeometry x="85" y="1650" width="60" height="30" as="geometry" />
        </mxCell>
        <mxCell id="dCZFzRNxmEc5decSwOcq-52" value="Offers" style="text;html=1;align=center;verticalAlign=middle;whiteSpace=wrap;rounded=0;" parent="1" vertex="1">
          <mxGeometry x="84" y="2010" width="60" height="30" as="geometry" />
        </mxCell>
        <mxCell id="dCZFzRNxmEc5decSwOcq-53" value="" style="rounded=0;whiteSpace=wrap;html=1;" parent="1" vertex="1">
          <mxGeometry x="179" y="1951" width="110" height="90" as="geometry" />
        </mxCell>
        <mxCell id="dCZFzRNxmEc5decSwOcq-54" value="Upload Avatar" style="text;html=1;align=center;verticalAlign=middle;whiteSpace=wrap;rounded=0;" parent="1" vertex="1">
          <mxGeometry x="181" y="2056" width="110" height="30" as="geometry" />
        </mxCell>
        <mxCell id="dCZFzRNxmEc5decSwOcq-55" value="Name" style="text;html=1;align=center;verticalAlign=middle;whiteSpace=wrap;rounded=0;" parent="1" vertex="1">
          <mxGeometry x="334" y="1944" width="110" height="30" as="geometry" />
        </mxCell>
        <mxCell id="dCZFzRNxmEc5decSwOcq-56" value="Email Address" style="text;html=1;align=center;verticalAlign=middle;whiteSpace=wrap;rounded=0;" parent="1" vertex="1">
          <mxGeometry x="334" y="1974" width="110" height="30" as="geometry" />
        </mxCell>
        <mxCell id="dCZFzRNxmEc5decSwOcq-57" value="Password" style="text;html=1;align=center;verticalAlign=middle;whiteSpace=wrap;rounded=0;" parent="1" vertex="1">
          <mxGeometry x="334" y="2004" width="110" height="30" as="geometry" />
        </mxCell>
        <mxCell id="dCZFzRNxmEc5decSwOcq-58" value="Last Login" style="text;html=1;align=center;verticalAlign=middle;whiteSpace=wrap;rounded=0;" parent="1" vertex="1">
          <mxGeometry x="334" y="2034" width="110" height="30" as="geometry" />
        </mxCell>
        <mxCell id="dCZFzRNxmEc5decSwOcq-59" value="" style="endArrow=none;html=1;rounded=0;" parent="1" edge="1">
          <mxGeometry width="50" height="50" relative="1" as="geometry">
            <mxPoint x="150" y="1760" as="sourcePoint" />
            <mxPoint x="521" y="1760" as="targetPoint" />
          </mxGeometry>
        </mxCell>
        <mxCell id="dCZFzRNxmEc5decSwOcq-60" value="" style="endArrow=none;html=1;rounded=0;" parent="1" edge="1">
          <mxGeometry width="50" height="50" relative="1" as="geometry">
            <mxPoint x="149" y="1400" as="sourcePoint" />
            <mxPoint x="520" y="1400" as="targetPoint" />
          </mxGeometry>
        </mxCell>
        <mxCell id="dCZFzRNxmEc5decSwOcq-61" value="" style="endArrow=none;html=1;rounded=0;" parent="1" edge="1">
          <mxGeometry width="50" height="50" relative="1" as="geometry">
            <mxPoint x="149" y="1040" as="sourcePoint" />
            <mxPoint x="520" y="1040" as="targetPoint" />
          </mxGeometry>
        </mxCell>
        <mxCell id="dCZFzRNxmEc5decSwOcq-62" value="Create Book" style="text;html=1;align=center;verticalAlign=middle;whiteSpace=wrap;rounded=0;" parent="1" vertex="1">
          <mxGeometry x="241" y="1050" width="120" height="30" as="geometry" />
        </mxCell>
        <mxCell id="dCZFzRNxmEc5decSwOcq-64" value="Create Offer" style="text;html=1;align=center;verticalAlign=middle;whiteSpace=wrap;rounded=0;" parent="1" vertex="1">
          <mxGeometry x="240" y="1770" width="120" height="30" as="geometry" />
        </mxCell>
        <mxCell id="dCZFzRNxmEc5decSwOcq-65" value="My Deals" style="text;html=1;align=center;verticalAlign=middle;whiteSpace=wrap;rounded=0;" parent="1" vertex="1">
          <mxGeometry x="241" y="1410" width="120" height="30" as="geometry" />
        </mxCell>
        <mxCell id="dCZFzRNxmEc5decSwOcq-66" value="" style="rounded=0;whiteSpace=wrap;html=1;" parent="1" vertex="1">
          <mxGeometry x="640" y="800" width="440" height="280" as="geometry" />
        </mxCell>
        <mxCell id="dCZFzRNxmEc5decSwOcq-67" value="Create Book" style="text;html=1;align=center;verticalAlign=middle;whiteSpace=wrap;rounded=0;" parent="1" vertex="1">
          <mxGeometry x="640" y="770" width="80" height="30" as="geometry" />
        </mxCell>
        <mxCell id="dCZFzRNxmEc5decSwOcq-68" value="" style="endArrow=none;html=1;rounded=0;" parent="1" edge="1">
          <mxGeometry width="50" height="50" relative="1" as="geometry">
            <mxPoint x="710" y="1080" as="sourcePoint" />
            <mxPoint x="710" y="800" as="targetPoint" />
          </mxGeometry>
        </mxCell>
        <mxCell id="dCZFzRNxmEc5decSwOcq-69" value="" style="endArrow=none;html=1;rounded=0;" parent="1" edge="1">
          <mxGeometry width="50" height="50" relative="1" as="geometry">
            <mxPoint x="640" y="841" as="sourcePoint" />
            <mxPoint x="1080" y="840" as="targetPoint" />
          </mxGeometry>
        </mxCell>
        <mxCell id="dCZFzRNxmEc5decSwOcq-70" value="Logo" style="text;html=1;align=center;verticalAlign=middle;whiteSpace=wrap;rounded=0;" parent="1" vertex="1">
          <mxGeometry x="640" y="810" width="60" height="30" as="geometry" />
        </mxCell>
        <mxCell id="dCZFzRNxmEc5decSwOcq-71" value="Logout" style="text;html=1;align=center;verticalAlign=middle;whiteSpace=wrap;rounded=0;" parent="1" vertex="1">
          <mxGeometry x="1020" y="810" width="60" height="30" as="geometry" />
        </mxCell>
        <mxCell id="dCZFzRNxmEc5decSwOcq-72" value="Theme&amp;nbsp;&lt;div&gt;Toggle&lt;/div&gt;" style="text;html=1;align=center;verticalAlign=middle;whiteSpace=wrap;rounded=0;" parent="1" vertex="1">
          <mxGeometry x="960" y="810" width="60" height="30" as="geometry" />
        </mxCell>
        <mxCell id="dCZFzRNxmEc5decSwOcq-73" value="Back" style="text;html=1;align=center;verticalAlign=middle;whiteSpace=wrap;rounded=0;" parent="1" vertex="1">
          <mxGeometry x="645" y="910" width="60" height="30" as="geometry" />
        </mxCell>
        <mxCell id="dCZFzRNxmEc5decSwOcq-77" value="Create Book" style="text;html=1;align=center;verticalAlign=middle;whiteSpace=wrap;rounded=0;" parent="1" vertex="1">
          <mxGeometry x="745" y="990" width="120" height="30" as="geometry" />
        </mxCell>
        <mxCell id="dCZFzRNxmEc5decSwOcq-102" value="Picture" style="rounded=0;whiteSpace=wrap;html=1;" parent="1" vertex="1">
          <mxGeometry x="730" y="860" width="150" height="70" as="geometry" />
        </mxCell>
        <mxCell id="dCZFzRNxmEc5decSwOcq-103" value="Title" style="rounded=0;whiteSpace=wrap;html=1;" parent="1" vertex="1">
          <mxGeometry x="910" y="860" width="150" height="30" as="geometry" />
        </mxCell>
        <mxCell id="dCZFzRNxmEc5decSwOcq-104" value="" style="rounded=0;whiteSpace=wrap;html=1;" parent="1" vertex="1">
          <mxGeometry x="910" y="900" width="150" height="30" as="geometry" />
        </mxCell>
        <mxCell id="dCZFzRNxmEc5decSwOcq-105" value="" style="rounded=0;whiteSpace=wrap;html=1;" parent="1" vertex="1">
          <mxGeometry x="640" y="1160" width="440" height="280" as="geometry" />
        </mxCell>
        <mxCell id="dCZFzRNxmEc5decSwOcq-106" value="" style="endArrow=none;html=1;rounded=0;" parent="1" edge="1">
          <mxGeometry width="50" height="50" relative="1" as="geometry">
            <mxPoint x="710" y="1440" as="sourcePoint" />
            <mxPoint x="710" y="1160" as="targetPoint" />
          </mxGeometry>
        </mxCell>
        <mxCell id="dCZFzRNxmEc5decSwOcq-107" value="" style="endArrow=none;html=1;rounded=0;" parent="1" edge="1">
          <mxGeometry width="50" height="50" relative="1" as="geometry">
            <mxPoint x="640" y="1201" as="sourcePoint" />
            <mxPoint x="1080" y="1200" as="targetPoint" />
          </mxGeometry>
        </mxCell>
        <mxCell id="dCZFzRNxmEc5decSwOcq-108" value="Logo" style="text;html=1;align=center;verticalAlign=middle;whiteSpace=wrap;rounded=0;" parent="1" vertex="1">
          <mxGeometry x="640" y="1170" width="60" height="30" as="geometry" />
        </mxCell>
        <mxCell id="dCZFzRNxmEc5decSwOcq-109" value="Logout" style="text;html=1;align=center;verticalAlign=middle;whiteSpace=wrap;rounded=0;" parent="1" vertex="1">
          <mxGeometry x="1020" y="1170" width="60" height="30" as="geometry" />
        </mxCell>
        <mxCell id="dCZFzRNxmEc5decSwOcq-110" value="Theme&amp;nbsp;&lt;div&gt;Toggle&lt;/div&gt;" style="text;html=1;align=center;verticalAlign=middle;whiteSpace=wrap;rounded=0;" parent="1" vertex="1">
          <mxGeometry x="960" y="1170" width="60" height="30" as="geometry" />
        </mxCell>
        <mxCell id="dCZFzRNxmEc5decSwOcq-111" value="Back" style="text;html=1;align=center;verticalAlign=middle;whiteSpace=wrap;rounded=0;" parent="1" vertex="1">
          <mxGeometry x="645" y="1270" width="60" height="30" as="geometry" />
        </mxCell>
        <mxCell id="dCZFzRNxmEc5decSwOcq-113" value="Drop Menu" style="rounded=0;whiteSpace=wrap;html=1;" parent="1" vertex="1">
          <mxGeometry x="730" y="1220" width="150" height="30" as="geometry" />
        </mxCell>
        <mxCell id="dCZFzRNxmEc5decSwOcq-114" value="Deal Details" style="rounded=0;whiteSpace=wrap;html=1;" parent="1" vertex="1">
          <mxGeometry x="910" y="1220" width="150" height="30" as="geometry" />
        </mxCell>
        <mxCell id="dCZFzRNxmEc5decSwOcq-115" value="" style="rounded=0;whiteSpace=wrap;html=1;" parent="1" vertex="1">
          <mxGeometry x="910" y="1260" width="150" height="30" as="geometry" />
        </mxCell>
        <mxCell id="dCZFzRNxmEc5decSwOcq-116" value="" style="rounded=0;whiteSpace=wrap;html=1;" parent="1" vertex="1">
          <mxGeometry x="640" y="1520" width="440" height="280" as="geometry" />
        </mxCell>
        <mxCell id="dCZFzRNxmEc5decSwOcq-117" value="" style="endArrow=none;html=1;rounded=0;" parent="1" edge="1">
          <mxGeometry width="50" height="50" relative="1" as="geometry">
            <mxPoint x="710" y="1800" as="sourcePoint" />
            <mxPoint x="710" y="1520" as="targetPoint" />
          </mxGeometry>
        </mxCell>
        <mxCell id="dCZFzRNxmEc5decSwOcq-118" value="" style="endArrow=none;html=1;rounded=0;" parent="1" edge="1">
          <mxGeometry width="50" height="50" relative="1" as="geometry">
            <mxPoint x="640" y="1561" as="sourcePoint" />
            <mxPoint x="1080" y="1560" as="targetPoint" />
          </mxGeometry>
        </mxCell>
        <mxCell id="dCZFzRNxmEc5decSwOcq-119" value="Logo" style="text;html=1;align=center;verticalAlign=middle;whiteSpace=wrap;rounded=0;" parent="1" vertex="1">
          <mxGeometry x="640" y="1530" width="60" height="30" as="geometry" />
        </mxCell>
        <mxCell id="dCZFzRNxmEc5decSwOcq-120" value="Logout" style="text;html=1;align=center;verticalAlign=middle;whiteSpace=wrap;rounded=0;" parent="1" vertex="1">
          <mxGeometry x="1020" y="1530" width="60" height="30" as="geometry" />
        </mxCell>
        <mxCell id="dCZFzRNxmEc5decSwOcq-121" value="Theme&amp;nbsp;&lt;div&gt;Toggle&lt;/div&gt;" style="text;html=1;align=center;verticalAlign=middle;whiteSpace=wrap;rounded=0;" parent="1" vertex="1">
          <mxGeometry x="960" y="1530" width="60" height="30" as="geometry" />
        </mxCell>
        <mxCell id="dCZFzRNxmEc5decSwOcq-122" value="Back" style="text;html=1;align=center;verticalAlign=middle;whiteSpace=wrap;rounded=0;" parent="1" vertex="1">
          <mxGeometry x="645" y="1630" width="60" height="30" as="geometry" />
        </mxCell>
        <mxCell id="dCZFzRNxmEc5decSwOcq-125" value="Offer Details" style="rounded=0;whiteSpace=wrap;html=1;" parent="1" vertex="1">
          <mxGeometry x="910" y="1580" width="150" height="30" as="geometry" />
        </mxCell>
        <mxCell id="dCZFzRNxmEc5decSwOcq-126" value="" style="rounded=0;whiteSpace=wrap;html=1;" parent="1" vertex="1">
          <mxGeometry x="910" y="1620" width="150" height="30" as="geometry" />
        </mxCell>
        <mxCell id="dCZFzRNxmEc5decSwOcq-127" value="My Deals" style="text;html=1;align=center;verticalAlign=middle;whiteSpace=wrap;rounded=0;" parent="1" vertex="1">
          <mxGeometry x="640" y="1130" width="80" height="30" as="geometry" />
        </mxCell>
        <mxCell id="dCZFzRNxmEc5decSwOcq-128" value="Create Offer" style="text;html=1;align=center;verticalAlign=middle;whiteSpace=wrap;rounded=0;" parent="1" vertex="1">
          <mxGeometry x="640" y="1490" width="80" height="30" as="geometry" />
        </mxCell>
        <mxCell id="dCZFzRNxmEc5decSwOcq-129" value="Drop Menu" style="rounded=0;whiteSpace=wrap;html=1;" parent="1" vertex="1">
          <mxGeometry x="730" y="1580" width="150" height="30" as="geometry" />
        </mxCell>
        <mxCell id="dCZFzRNxmEc5decSwOcq-130" value="Books&amp;nbsp; with flexbox Card" style="text;html=1;align=center;verticalAlign=middle;whiteSpace=wrap;rounded=0;" parent="1" vertex="1">
          <mxGeometry x="161" y="850" width="150" height="30" as="geometry" />
        </mxCell>
        <mxCell id="7AqbM3VPTJX5Y87s8P_b-11" value="" style="rounded=0;whiteSpace=wrap;html=1;" vertex="1" parent="1">
          <mxGeometry x="348" y="470" width="110" height="90" as="geometry" />
        </mxCell>
        <mxCell id="7AqbM3VPTJX5Y87s8P_b-12" value="Upload Avatar" style="text;html=1;align=center;verticalAlign=middle;whiteSpace=wrap;rounded=0;" vertex="1" parent="1">
          <mxGeometry x="350" y="575" width="110" height="30" as="geometry" />
        </mxCell>
        <mxCell id="7AqbM3VPTJX5Y87s8P_b-13" value="Name" style="text;html=1;align=center;verticalAlign=middle;whiteSpace=wrap;rounded=0;" vertex="1" parent="1">
          <mxGeometry x="350" y="605" width="110" height="30" as="geometry" />
        </mxCell>
        <mxCell id="7AqbM3VPTJX5Y87s8P_b-14" value="Email Address" style="text;html=1;align=center;verticalAlign=middle;whiteSpace=wrap;rounded=0;" vertex="1" parent="1">
          <mxGeometry x="350" y="635" width="110" height="30" as="geometry" />
        </mxCell>
        <mxCell id="7AqbM3VPTJX5Y87s8P_b-15" value="Password" style="text;html=1;align=center;verticalAlign=middle;whiteSpace=wrap;rounded=0;" vertex="1" parent="1">
          <mxGeometry x="350" y="665" width="110" height="30" as="geometry" />
        </mxCell>
      </root>
    </mxGraphModel>
  </diagram>
</mxfile>
